# xmcd
#
# Track frame offsets: 
#        150
#        24090
#        48457
#        63265
#        81257
#        97955
#        115477
#        146222
#        171930
#        190202
#        220397
#        240277
#        261025
#        287932
#
# Disc length: 4065 seconds
#
# Revision: 7
# Processed by: cddbd v1.5.2PL0 Copyright (c) Steve Scherf et al.
# Submitted via: ExactAudioCopyFreeDBPlugin 1.0
#
DISCID=c90fdf0e
DTITLE=Various Artist - Sax Comes To Dance Vol2
DYEAR=1997
DGENRE=Funk
TTITLE0=Grover Washington Jr. - Can You Dig It
TTITLE1=Tim Cunningham - Drastic Measures
TTITLE2=Beautiful Ballet - Energy
TTITLE3=Shakatak - Streetwalkin'
TTITLE4=Rad - Wishy
TTITLE5=Glen Goldsmith - I Won't Cry
TTITLE6=Mike T. - Do It Anyway You Wanna
TTITLE7=Paul Hardcastle - Rain Forest
TTITLE8=The James Taylor Quartet - Check It Out
TTITLE9=Light Of The World - London Town
TTITLE10=The JB Horns - Picture On The Wall
TTITLE11=Bobby Byrd ft. Jacko Peake - Never Get Enough
TTITLE12=Jestofunk - Theme From JFK
TTITLE13=Maceo Parker ft. Kym Mazelle - I Got You, I Feel Good (Live)
EXTD=
EXTT0=
EXTT1=
EXTT2=
EXTT3=
EXTT4=
EXTT5=
EXTT6=
EXTT7=
EXTT8=
EXTT9=
EXTT10=
EXTT11=
EXTT12=
EXTT13=
PLAYORDER=
